<svg
  xmlns="http://www.w3.org/2000/svg"
  viewBox="1060 200 720 1130"
  fill="none"
>
  <path
    d="M0 0 C0.33 0 0.66 0 1 0 C7.73103963 70.58640757 2.99705688 143.90985052 -13 213 C-13.2789209 214.21042969 -13.5578418 215.42085937 -13.84521484 216.66796875 C-20.45247982 244.80259955 -29.33757464 272.19739105 -40.75 298.75 C-41.05406769 299.45781616 -41.35813538 300.16563232 -41.67141724 300.89489746 C-45.81195496 310.47365083 -50.32157838 319.83550737 -55.05586243 329.13369751 C-56.0604625 331.11951787 -57.04815948 333.1131759 -58.03344727 335.10864258 C-67.86929946 354.96426815 -81.28753416 373.65189187 -95 391 C-96.19496094 392.51207031 -96.19496094 392.51207031 -97.4140625 394.0546875 C-102.39582444 400.23481142 -107.65349296 406.13549228 -113 412 C-114.54198029 413.728887 -116.08364901 415.45805194 -117.625 417.1875 C-123.70351633 423.92970183 -130.05267286 430.1569548 -137 436 C-137.54269531 436.45648926 -138.08539062 436.91297852 -138.64453125 437.38330078 C-191.08007621 481.27140279 -253.7580395 507.06652966 -321 518 C-321.7290152 518.1193692 -322.4580304 518.2387384 -323.20913696 518.36172485 C-335.54779569 520.36240441 -347.84480249 521.80550369 -360.3125 522.6875 C-361.61735855 522.78130951 -361.61735855 522.78130951 -362.94857788 522.87701416 C-396.62160473 525.24458643 -430.55185822 524.96529313 -464 520 C-463.46519217 513.54665222 -461.27719721 508.1759759 -458.75 502.25 C-458.30817383 501.20650391 -457.86634766 500.16300781 -457.41113281 499.08789062 C-448.72742433 478.83591999 -438.93842508 459.41958747 -427.54248047 440.56054688 C-426.17786438 438.29525826 -424.83475818 436.01959869 -423.50390625 433.734375 C-407.16716767 405.78910985 -386.58006836 380.22508596 -364.51171875 356.625 C-363.00824525 355.00886311 -361.5178154 353.38169184 -360.03125 351.75 C-351.13537083 341.99776254 -342.08635961 332.28440911 -332.01171875 323.73046875 C-329.51716397 321.58466726 -327.10781018 319.35414323 -324.6875 317.125 C-320.25503526 313.08720678 -315.72257823 309.22692566 -311.0546875 305.46484375 C-308.8168842 303.65914825 -306.59518101 301.84020688 -304.3828125 300.00390625 C-295.30500814 292.49715048 -285.97136689 285.45862894 -276.35058594 278.66357422 C-273.97892004 276.98508113 -271.61804892 275.29217256 -269.2578125 273.59765625 C-241.57583693 253.83797188 -212.00155676 236.95242672 -182 221 C-181.09749512 220.51982422 -180.19499023 220.03964844 -179.26513672 219.54492188 C-170.56152772 214.92228485 -161.82724574 210.38274238 -153 206 C-234.79208461 228.84976575 -315.65542106 260.94780667 -380 318 C-381.35385283 319.16703084 -382.70796995 320.33375525 -384.0625 321.5 C-396.70174652 332.63008276 -409.10278826 344.13586414 -420 357 C-420.86882812 357.99128906 -421.73765625 358.98257812 -422.6328125 360.00390625 C-447.16992585 388.06385679 -467.188067 419.50470346 -484.60302734 452.38232422 C-485.78253193 454.59250391 -486.98343704 456.78672328 -488.20703125 458.97265625 C-493.67277708 468.84662072 -498.11200468 479.11782271 -502.58203125 489.47265625 C-504.27458035 493.38370252 -506.02915419 497.2219999 -508 501 C-511.22246363 495.35961075 -511.79531314 488.63134674 -512.9375 482.3125 C-513.06972961 481.58138 -513.20195923 480.85026001 -513.3381958 480.09698486 C-527.99917466 397.97549587 -518.74892128 307.66351091 -470.26342773 237.85205078 C-446.05482446 203.82937963 -414.97775829 177.38602886 -378 158 C-377.05278076 157.50258301 -377.05278076 157.50258301 -376.08642578 156.99511719 C-371.43381487 154.57269316 -366.73326869 152.26031121 -362 150 C-361.26894043 149.64969727 -360.53788086 149.29939453 -359.78466797 148.93847656 C-329.81457802 134.70476198 -298.06313183 124.80980308 -265.99194336 116.58422852 C-259.74371719 114.97987783 -253.51599415 113.3313799 -247.3125 111.5625 C-235.60823701 108.24275052 -223.77334268 105.40075851 -211.96496582 102.47865295 C-207.17360824 101.29286538 -202.38530826 100.09518166 -197.59765625 98.89453125 C-193.38440167 97.83818557 -189.16935026 96.79311978 -184.94140625 95.796875 C-172.43195192 92.82800919 -160.26944756 89.00263014 -148.05908203 84.9921875 C-145.1913231 84.06205404 -142.31625948 83.16394071 -139.43359375 82.28125 C-103.16364949 71.14147719 -66.93199563 56.26247437 -36 34 C-35.39961914 33.57460937 -34.79923828 33.14921875 -34.18066406 32.7109375 C-22.25163312 24.17198007 -10.08893772 13.50909963 -1.31518555 1.73999023 C-0.88117432 1.16579346 -0.44716309 0.59159668 0 0 Z"
    fill="#419821"
    transform="translate(1603,218)"
  />
  <path
    d="M0 0 C1.12839698 3.38519095 0.89520962 4.05829418 -0.1953125 7.3203125 C-0.49147461 8.22394531 -0.78763672 9.12757813 -1.09277344 10.05859375 C-1.4334082 11.07050781 -1.77404297 12.08242188 -2.125 13.125 C-2.88374011 15.43980032 -3.64148459 17.75492714 -4.3984375 20.0703125 C-4.8225771 21.35970514 -5.24673115 22.64909303 -5.67089844 23.93847656 C-8.07848532 31.2769224 -10.4131608 38.63878845 -12.75 46 C-13.01410675 46.83087128 -13.2782135 47.66174255 -13.55032349 48.51779175 C-19.61962232 67.62864472 -25.49545669 86.79894204 -31.37579346 105.96853638 C-36.61970823 123.06323554 -41.90888076 140.14112436 -47.33905029 157.17776489 C-50.9927767 168.65411541 -54.44534867 180.18006877 -57.80334473 191.7461853 C-60.99816456 202.74502152 -64.3822865 213.66338292 -67.95776367 224.54541016 C-70.50732169 232.32827149 -72.74499728 240.10749047 -75 248 C-6.195 248.495 -6.195 248.495 64 249 C61.71400509 252.42899236 59.48102472 255.7754639 57.0390625 259.07421875 C56.49233887 259.81430176 55.94561523 260.55438477 55.38232422 261.31689453 C54.80240723 262.09919434 54.22249023 262.88149414 53.625 263.6875 C53.01285645 264.51620605 52.40071289 265.34491211 51.77001953 266.19873047 C49.24070564 269.62264453 46.70825974 273.04422811 44.17382812 276.46435547 C37.50805817 285.46095463 30.8993435 294.4867741 24.47045898 303.65454102 C20.84121505 308.8263492 17.15043355 313.95052172 13.4375 319.0625 C9.39442407 324.63261552 5.43179243 330.24539473 1.5625 335.9375 C-3.08794694 342.77191052 -7.95364704 349.43160507 -12.87646484 356.07177734 C-16.71900077 361.25524762 -20.51022575 366.46953342 -24.24682617 371.72973633 C-27.59625993 376.44342676 -30.98305283 381.12933135 -34.375 385.8125 C-39.12706122 392.37831443 -43.82289224 398.98098226 -48.484375 405.61132812 C-52.07359345 410.70858208 -55.71405926 415.76657685 -59.375 420.8125 C-63.98135335 427.16418628 -68.51333111 433.56325314 -73 440 C-79.03933378 448.66135764 -85.18755732 457.2379552 -91.39111328 465.78222656 C-94.100432 469.51689291 -96.79966743 473.25883406 -99.5 477 C-100.5832858 478.50003433 -101.66661912 480.00003434 -102.75 481.5 C-103.28625 482.2425 -103.8225 482.985 -104.375 483.75 C-109.25 490.5 -109.25 490.5 -110.87524414 492.75024414 C-111.95788254 494.2493445 -113.0404022 495.74853062 -114.12280273 497.24780273 C-116.84079823 501.01228168 -119.56088068 504.77521904 -122.28515625 508.53515625 C-129.09928189 517.94475305 -135.84218504 527.40096643 -142.52490234 536.90429688 C-143.98934516 538.98486243 -145.45694191 541.06316142 -146.92578125 543.140625 C-152.34672214 550.80821973 -157.74559497 558.49070104 -163.125 566.1875 C-172.39721332 579.44697861 -181.84581278 592.57473211 -191.32666016 605.68554688 C-192.97234992 607.96175624 -194.61722209 610.23855354 -196.26171875 612.515625 C-197.06355591 613.62587036 -197.06355591 613.62587036 -197.8815918 614.75854492 C-198.96274486 616.255915 -200.04363575 617.75347441 -201.12426758 619.2512207 C-203.8256548 622.99438032 -206.5321976 626.73358198 -209.25 630.46484375 C-215.36007038 638.86584633 -221.33612154 647.34079434 -227.17333984 655.93383789 C-231.41515362 662.17259688 -235.74493464 668.34458919 -240.13110352 674.48266602 C-242.57266179 677.91320992 -244.89765915 681.34559544 -247 685 C-247.66 684.67 -248.32 684.34 -249 684 C-248.54794189 682.90357178 -248.09588379 681.80714355 -247.63012695 680.67749023 C-241.63264331 665.98429427 -236.2581596 651.07783961 -230.92697144 636.13375854 C-229.66114172 632.58817113 -228.39089416 629.04416686 -227.12109375 625.5 C-225.05438084 619.73007794 -222.98988002 613.9593697 -220.92724609 608.18798828 C-218.31639393 600.88292598 -215.70065191 593.57962533 -213.08203125 586.27734375 C-212.69876678 585.20856491 -212.31550232 584.13978607 -211.92062378 583.03862 C-211.15844793 580.91328185 -210.39625129 578.78795117 -209.6340332 576.66262817 C-208.49454473 573.48478617 -207.35558765 570.3067542 -206.21679688 567.12866211 C-198.64511333 545.99903584 -191.05241342 524.87697321 -183.45987892 503.75483322 C-182.97617782 502.40919519 -182.49247738 501.06355691 -182.00877762 499.7179184 C-181.53296816 498.39423269 -181.0571559 497.07054799 -180.58134079 495.74686432 C-176.98040739 485.72922357 -173.38188922 475.71071932 -169.78637695 465.69113159 C-169.00297424 463.50828733 -168.21930624 461.3255385 -167.43554688 459.14282227 C-164.48917381 450.93701317 -161.54469646 442.73052844 -158.60292244 434.52306938 C-156.57021045 428.85219519 -154.53609787 423.18182422 -152.50127983 417.5117054 C-151.23521037 413.98355322 -149.96972597 410.45519399 -148.70581055 406.92626953 C-147.50603106 403.57645134 -146.30451293 400.22726109 -145.10189247 396.87846184 C-144.45643186 395.07983664 -143.81265792 393.28060641 -143.16899109 391.4813385 C-138.9009046 379.60553835 -134.43263057 367.82034818 -130 356 C-175.21 356 -220.42 356 -267 356 C-263.28609908 350.42914863 -259.72160524 345.2371228 -255.5 340.125 C-250.29290983 333.71690382 -245.36384131 327.13791456 -240.49414062 320.47119141 C-236.06910366 314.42356046 -231.55641414 308.44915423 -227 302.5 C-221.27862813 295.02598098 -215.65256005 287.49030294 -210.08911133 279.89819336 C-205.13617576 273.15230788 -200.06313522 266.50351981 -194.96484375 259.8671875 C-190.92953662 254.61316345 -186.96538469 249.30694474 -183 244 C-182.32066406 243.09765625 -181.64132812 242.1953125 -180.94140625 241.265625 C-176.99163322 236.01858706 -173.07699995 230.74856129 -169.19213867 225.45336914 C-162.87334745 216.84338968 -156.45370445 208.31890229 -149.96264648 199.83813477 C-145.58046048 194.10246347 -141.26511912 188.3231535 -137 182.5 C-131.4133758 174.87259983 -125.70723662 167.34355435 -119.9609375 159.8359375 C-115.57935674 154.10097273 -111.26457042 148.32240437 -107 142.5 C-101.4133758 134.87259983 -95.70723662 127.34355435 -89.9609375 119.8359375 C-85.57935674 114.10097273 -81.26457042 108.32240437 -77 102.5 C-71.41554142 94.87555655 -65.71184368 87.34925067 -59.9675293 79.84472656 C-55.52038861 74.02422792 -51.14226512 68.15824333 -46.8125 62.25 C-39.81037282 52.69868402 -32.6200578 43.29957599 -25.39550781 33.91601562 C-16.780413 22.71901093 -8.34284576 11.40132282 0 0 Z"
    fill="#1B71B5"
    transform="translate(1540,630)"
  />
  <path
    d="M0 0 C5.45792458 1.5432151 10.01801983 4.08987965 14.875 6.9375 C15.70854004 7.42404053 16.54208008 7.91058105 17.40087891 8.41186523 C39.09344994 21.23395252 59.48771339 36.86103117 77 55 C79.65183732 57.66942828 82.32246959 60.31770884 85.015625 62.9453125 C91.83005464 69.62146317 98.17372172 76.42583823 104 84 C104.45729492 84.59151855 104.91458984 85.18303711 105.38574219 85.79248047 C151.45910639 145.57851701 177.82584404 218.32850071 178.125 294 C178.12983398 295.13961182 178.13466797 296.27922363 178.13964844 297.45336914 C178.1106905 311.9478486 176.96061029 326.1231213 174.8125 340.4375 C174.70329224 341.17122833 174.59408447 341.90495667 174.48156738 342.66091919 C168.96624916 379.34471666 157.53017493 415.24103118 140 448 C139.6066748 448.73734375 139.21334961 449.4746875 138.80810547 450.234375 C133.66289828 459.8210682 128.2599277 469.08796553 122 478 C121.23404543 479.11696157 120.46843489 480.23415912 119.703125 481.3515625 C114.10355876 489.44208319 107.96770798 496.90749725 101.48046875 504.29736328 C99.59053568 506.47091097 97.74688018 508.68092539 95.90332031 510.89379883 C87.8543367 520.53587152 79.59663224 530.3310841 69.921875 538.38671875 C67.72950592 540.22706108 65.65725617 542.17434619 63.5625 544.125 C56.41725478 550.56009088 48.72120616 556.2814024 41 562 C40.2992334 562.52029785 39.5984668 563.0405957 38.87646484 563.57666016 C28.72488226 571.06366049 18.2231541 577.65863901 7.19580078 583.77880859 C5.22430011 584.87525582 3.26558714 585.99124309 1.30859375 587.11328125 C-43.29586793 612.26982412 -97.07590049 625.1897924 -147.97070312 625.18530273 C-150.73062685 625.18748468 -153.4901468 625.20568944 -156.25 625.22460938 C-167.00370116 625.25747874 -177.36665327 624.66440732 -188 623 C-183.99561868 616.87549262 -179.80847571 610.92982338 -175.4375 605.0625 C-174.20388751 603.39493027 -172.97082815 601.72695124 -171.73828125 600.05859375 C-170.80749756 598.79958252 -170.80749756 598.79958252 -169.85791016 597.51513672 C-167.49472148 594.3159817 -165.13201306 591.11671879 -162.78955078 587.90234375 C-161.68268521 586.3879932 -160.56517038 584.88136748 -159.43701172 583.3828125 C-156.96964837 580.04640795 -154.85838741 577.01601026 -153.46484375 573.08984375 C-151.90668788 569.17058262 -150.67205787 566.17273017 -147 564 C-139.2654247 561.92602194 -131.10888032 561.81922566 -123.14337158 561.39808655 C-61.11759162 557.93156405 -3.79321454 523.62626348 39.3125 480.8125 C39.87533691 480.2544165 40.43817383 479.69633301 41.01806641 479.12133789 C83.11091048 436.86111432 107.36363347 379.66208654 114 321 C114.103125 320.10168457 114.20625 319.20336914 114.3125 318.27783203 C115.11783861 310.4876191 115.24207108 302.70189235 115.25 294.875 C115.25100708 294.1781308 115.25201416 293.4812616 115.25305176 292.76327515 C115.24005932 279.3438098 114.1252037 266.25962224 112 253 C111.86078125 252.10313477 111.7215625 251.20626953 111.578125 250.28222656 C102.86741343 195.57815137 76.43193074 143.74884441 38 104 C37.05302246 103.02015137 37.05302246 103.02015137 36.08691406 102.02050781 C28.11980731 93.82191128 20.11123019 85.93779658 11 79 C10.1032959 78.30463135 10.1032959 78.30463135 9.18847656 77.59521484 C0.43848607 70.81168563 -8.42721147 64.5731988 -18 59 C-16.78353577 53.00099832 -15.20130995 47.27664273 -13.1875 41.5 C-11.12994081 35.47325754 -9.19763136 29.43276446 -7.4375 23.3125 C-5.17783305 15.46327539 -2.64360278 7.72831963 0 0 Z"
    fill="#5EBA3F"
    transform="translate(1585,599)"
  />
  <path
    d="M0 0 C6.44897347 0.46413067 12.8430927 1.09416694 19.25 1.96875 C28.47528301 3.16841207 37.71348844 3.66443414 47 4.125 C48.66148597 4.21171164 50.3229446 4.29894876 51.984375 4.38671875 C55.98929569 4.59717393 59.99451315 4.80062317 64 5 C63.4428112 8.13507502 62.74489122 10.90062898 61.43359375 13.80078125 C61.11680664 14.51830566 60.80001953 15.23583008 60.47363281 15.97509766 C60.13170898 16.74644043 59.78978516 17.5177832 59.4375 18.3125 C46.87120202 47.47158069 39.03487739 78.52003288 38.76171875 110.37109375 C38.75201553 111.32349945 38.74231232 112.27590515 38.73231506 113.25717163 C38.7075358 116.31732464 38.69480661 119.37725688 38.6875 122.4375 C38.68357239 124.0067775 38.68357239 124.0067775 38.67956543 125.60775757 C38.67505371 142.45016958 39.68410606 158.45283748 43 175 C43.30358622 176.64840053 43.60698425 178.29683574 43.91015625 179.9453125 C46.18210486 191.62730893 50.03029437 202.80253903 54 214 C54.25539551 214.73524902 54.51079102 215.47049805 54.77392578 216.22802734 C58.38392101 226.59438822 62.85685321 236.30906187 68 246 C68.56460937 247.07918701 68.56460937 247.07918701 69.140625 248.18017578 C75.23812411 259.78320846 82.1844764 270.48519192 90 281 C90.44375977 281.60215332 90.88751953 282.20430664 91.34472656 282.82470703 C96.44438598 289.72026621 101.85931356 296.23068815 107.69921875 302.515625 C109.68514905 304.66002512 111.60235728 306.84043593 113.5 309.0625 C120.94509447 317.58608947 129.10367414 325.02660669 138 332 C138.59635254 332.47808105 139.19270508 332.95616211 139.80712891 333.44873047 C154.30796051 345.06772803 169.83871786 355.45997037 186.64697266 363.46606445 C190.82210095 365.53934245 190.82210095 365.53934245 191.72657776 367.88142395 C192.18668529 371.44650624 190.67969361 374.58656381 189.46484375 377.88671875 C189.18911026 378.66199417 188.91337677 379.43726959 188.62928772 380.23603821 C187.74202254 382.72357259 186.84011188 385.2054983 185.9375 387.6875 C185.35643247 389.30758819 184.77634471 390.92802813 184.19726562 392.54882812 C183.33333678 394.96570341 182.4667672 397.3814222 181.59066772 399.79391479 C180.1232342 403.83565802 178.69278592 407.88418987 177.33251953 411.96337891 C177.06637344 412.75114212 176.80022736 413.53890533 176.52601624 414.35054016 C176.02230018 415.8471147 175.52789372 417.34686447 175.04417419 418.85002136 C174.45092817 420.59909923 173.73527375 422.3057194 173 424 C170 425 170 425 166.91015625 423.734375 C165.62168841 423.08451533 164.33955786 422.4220046 163.0625 421.75 C162.36302246 421.38938477 161.66354492 421.02876953 160.94287109 420.65722656 C158.62135565 419.45144273 156.31029875 418.22712497 154 417 C153.20223145 416.58105469 152.40446289 416.16210938 151.58251953 415.73046875 C126.80913103 402.67575576 104.2787627 386.61541786 83.765625 367.54296875 C81.57212607 365.52606507 79.34943886 363.59488388 77.0625 361.6875 C68.27685308 354.05496923 60.54616732 344.94648678 53.31347656 335.86499023 C51.0170761 333.0211469 48.65392867 330.24517696 46.28125 327.46484375 C41.13010652 321.33540895 36.59533881 314.87261588 32.1875 308.1875 C31.61263351 307.31967896 31.61263351 307.31967896 31.02615356 306.43432617 C23.43135748 294.94831708 16.41617427 283.18889924 10 271 C9.37689941 269.81978271 9.37689941 269.81978271 8.74121094 268.61572266 C1.86673614 255.38448042 -3.06138079 241.45622111 -7.85400391 227.36083984 C-8.88637366 224.33322969 -9.94602386 221.31676744 -11.01171875 218.30078125 C-16.00980931 203.81452088 -18.71856462 189.12816584 -21 174 C-21.16516113 172.99098633 -21.33032227 171.98197266 -21.50048828 170.94238281 C-26.75593856 138.27924302 -26.64619847 102.18345972 -20.50390625 69.66796875 C-20.06126039 67.32434766 -19.67211322 64.98246447 -19.3125 62.625 C-16.05041317 42.72627034 -11.31002154 16.96503231 0 0 Z"
    fill="#5EBA3F"
    transform="translate(1129,770)"
  />
</svg>
